<svg xmlns="http://www.w3.org/2000/svg" width="2000" height="1900" viewBox="0 0 2000 1900" font-family="system-ui,-apple-system,sans-serif">
  <defs>
    <marker id="arr" markerWidth="10" markerHeight="7" refX="9" refY="3.5" orient="auto">
      <polygon points="0 0,10 3.5,0 7" fill="#94A3B8"/>
    </marker>
    <marker id="arr-pink" markerWidth="10" markerHeight="7" refX="9" refY="3.5" orient="auto">
      <polygon points="0 0,10 3.5,0 7" fill="#DB2777"/>
    </marker>
  </defs>

  <!-- Background -->
  <rect width="2000" height="1900" fill="#F1F5F9"/>

  <!-- Title -->
  <text x="1000" y="48" text-anchor="middle" font-size="22" font-weight="700" fill="#0F172A">Data Pipeline Architecture — Telecom Spend Management</text>
  <text x="1000" y="70" text-anchor="middle" font-size="12" fill="#64748B">BC Government · Aurora PostgreSQL + dbt + FastAPI · raw_data → staging → reference → intermediate → marts</text>

  <!-- ═══════════════════════════════════════════════════ -->
  <!-- RAW COLUMN -->
  <!-- ═══════════════════════════════════════════════════ -->
  <rect x="20" y="90" width="350" height="36" rx="6" fill="#D97706"/>
  <text x="195" y="113" text-anchor="middle" font-size="13" font-weight="700" fill="white">raw_data schema</text>

  <!-- TSMA subgroup -->
  <rect x="24" y="134" width="342" height="362" rx="6" fill="#FFFBEB" stroke="#FDE68A" stroke-width="1.5"/>
  <rect x="24" y="134" width="342" height="24" rx="6" fill="#FEF3C7"/>
  <rect x="24" y="146" width="342" height="12" fill="#FEF3C7"/>
  <text x="38" y="150" font-size="10" font-weight="700" fill="#92400E">TSMA</text>

  <!-- tsma_wireless -->
  <rect x="30" y="164" width="330" height="48" rx="4" fill="white" stroke="#FDE68A"/>
  <text x="40" y="181" font-size="12" font-weight="600" fill="#1C1917">tsma_wireless</text>
  <text x="40" y="197" font-size="9" fill="#78716C" font-family="monospace">entity: rcid_cust_nm · period: ccyymm · amount: billed_amt</text>

  <!-- tsma_lite_wireless -->
  <rect x="30" y="218" width="330" height="48" rx="4" fill="white" stroke="#FDE68A"/>
  <text x="40" y="235" font-size="12" font-weight="600" fill="#1C1917">tsma_lite_wireless</text>
  <text x="40" y="251" font-size="9" fill="#78716C" font-family="monospace">entity: rcid_cust_nm · period: ccyymm · amount: billed_amt</text>

  <!-- tsma_wireline -->
  <rect x="30" y="272" width="330" height="48" rx="4" fill="white" stroke="#FDE68A"/>
  <text x="40" y="289" font-size="12" font-weight="600" fill="#1C1917">tsma_wireline</text>
  <text x="40" y="305" font-size="9" fill="#78716C" font-family="monospace">entity: entity · tower: tsma_service_tower · billed_amt</text>

  <!-- tsma_lite_wireline -->
  <rect x="30" y="326" width="330" height="48" rx="4" fill="white" stroke="#FDE68A"/>
  <text x="40" y="343" font-size="12" font-weight="600" fill="#1C1917">tsma_lite_wireline</text>
  <text x="40" y="359" font-size="9" fill="#78716C" font-family="monospace">entity: rcid_cust_nm · tower: tsma_service_tower</text>

  <!-- tsma_ivr -->
  <rect x="30" y="380" width="330" height="48" rx="4" fill="white" stroke="#FDE68A"/>
  <text x="40" y="397" font-size="12" font-weight="600" fill="#1C1917">tsma_ivr</text>
  <text x="40" y="413" font-size="9" fill="#78716C" font-family="monospace">entity: rcid_cust_nm · amount: billed_amt</text>

  <!-- tsma_mms -->
  <rect x="30" y="434" width="330" height="48" rx="4" fill="#FFF7ED" stroke="#FED7AA"/>
  <text x="40" y="451" font-size="12" font-weight="600" fill="#1C1917">tsma_mms</text>
  <text x="311" y="451" font-size="10" fill="#EA580C">⚠</text>
  <text x="40" y="467" font-size="9" fill="#C2410C" font-family="monospace">entity: entity_name · amount: total  ← different col names</text>

  <!-- TSMA Other subgroup -->
  <rect x="24" y="506" width="342" height="140" rx="6" fill="#FFFBEB" stroke="#FDE68A" stroke-width="1.5"/>
  <rect x="24" y="506" width="342" height="24" rx="6" fill="#FEF3C7"/>
  <rect x="24" y="518" width="342" height="12" fill="#FEF3C7"/>
  <text x="38" y="522" font-size="10" font-weight="700" fill="#92400E">TSMA Other</text>

  <!-- tsma_other_managed_security -->
  <rect x="30" y="536" width="330" height="48" rx="4" fill="white" stroke="#FDE68A"/>
  <text x="40" y="553" font-size="12" font-weight="600" fill="#1C1917">tsma_other_managed_security</text>
  <text x="40" y="569" font-size="9" fill="#78716C" font-family="monospace">entity: entity · tower: tsma_service_tower · billed_amt</text>

  <!-- tsma_other_managed_router -->
  <rect x="30" y="590" width="330" height="48" rx="4" fill="white" stroke="#FDE68A"/>
  <text x="40" y="607" font-size="12" font-weight="600" fill="#1C1917">tsma_other_managed_router</text>
  <text x="40" y="623" font-size="9" fill="#78716C" font-family="monospace">entity: entity · tower: tsma_service_tower · billed_amt</text>

  <!-- NGTA subgroup -->
  <rect x="24" y="658" width="342" height="188" rx="6" fill="#EFF6FF" stroke="#BFDBFE" stroke-width="1.5"/>
  <rect x="24" y="658" width="342" height="24" rx="6" fill="#DBEAFE"/>
  <rect x="24" y="670" width="342" height="12" fill="#DBEAFE"/>
  <text x="38" y="674" font-size="10" font-weight="700" fill="#1E40AF">NGTA</text>

  <!-- raw_telus_spend -->
  <rect x="30" y="688" width="330" height="48" rx="4" fill="white" stroke="#BFDBFE"/>
  <text x="40" y="705" font-size="12" font-weight="600" fill="#1C1917">raw_telus_spend</text>
  <text x="40" y="721" font-size="9" fill="#78716C" font-family="monospace">entity: organization · amount: amount · statement_date</text>

  <!-- raw_rogers_spend_cellular -->
  <rect x="30" y="742" width="330" height="48" rx="4" fill="white" stroke="#BFDBFE"/>
  <text x="40" y="759" font-size="12" font-weight="600" fill="#1C1917">raw_rogers_spend_cellular</text>
  <text x="40" y="775" font-size="9" fill="#78716C" font-family="monospace">entity: bge · amount: billed_amount_pre_tax · 30+ charge cols</text>

  <!-- raw_rogers_spend_data_voice -->
  <rect x="30" y="796" width="330" height="48" rx="4" fill="white" stroke="#BFDBFE"/>
  <text x="40" y="813" font-size="12" font-weight="600" fill="#1C1917">raw_rogers_spend_data_voice</text>
  <text x="40" y="829" font-size="9" fill="#78716C" font-family="monospace">entity: bge · amount: billed_amount_pre_tax · billingdate</text>

  <!-- ═══════════════════════════════════════════════════ -->
  <!-- STAGING COLUMN -->
  <!-- ═══════════════════════════════════════════════════ -->
  <rect x="400" y="90" width="295" height="36" rx="6" fill="#2563EB"/>
  <text x="548" y="113" text-anchor="middle" font-size="13" font-weight="700" fill="white">staging  (views)</text>

  <!-- stg_tsma_wireless -->
  <rect x="406" y="164" width="283" height="48" rx="4" fill="#EFF6FF" stroke="#BFDBFE"/>
  <text x="416" y="181" font-size="12" font-weight="600" fill="#1E40AF">stg_tsma_wireless</text>
  <text x="416" y="197" font-size="9" fill="#3B82F6" font-family="monospace">entity_raw · period_date · billed_amt · source_feed</text>

  <!-- stg_tsma_lite_wireless -->
  <rect x="406" y="218" width="283" height="48" rx="4" fill="#EFF6FF" stroke="#BFDBFE"/>
  <text x="416" y="235" font-size="12" font-weight="600" fill="#1E40AF">stg_tsma_lite_wireless</text>
  <text x="416" y="251" font-size="9" fill="#3B82F6" font-family="monospace">entity_raw · period_date · billed_amt · source_feed</text>

  <!-- stg_tsma_wireline -->
  <rect x="406" y="272" width="283" height="48" rx="4" fill="#EFF6FF" stroke="#BFDBFE"/>
  <text x="416" y="289" font-size="12" font-weight="600" fill="#1E40AF">stg_tsma_wireline</text>
  <text x="416" y="305" font-size="9" fill="#3B82F6" font-family="monospace">entity_raw · service_tower_raw · billed_amt</text>

  <!-- stg_tsma_lite_wireline -->
  <rect x="406" y="326" width="283" height="48" rx="4" fill="#EFF6FF" stroke="#BFDBFE"/>
  <text x="416" y="343" font-size="12" font-weight="600" fill="#1E40AF">stg_tsma_lite_wireline</text>
  <text x="416" y="359" font-size="9" fill="#3B82F6" font-family="monospace">entity_raw · service_tower_raw · billed_amt</text>

  <!-- stg_tsma_ivr -->
  <rect x="406" y="380" width="283" height="48" rx="4" fill="#EFF6FF" stroke="#BFDBFE"/>
  <text x="416" y="397" font-size="12" font-weight="600" fill="#1E40AF">stg_tsma_ivr</text>
  <text x="416" y="413" font-size="9" fill="#3B82F6" font-family="monospace">entity_raw · period_date · billed_amt</text>

  <!-- stg_tsma_mms -->
  <rect x="406" y="434" width="283" height="48" rx="4" fill="#EFF6FF" stroke="#BFDBFE"/>
  <text x="416" y="451" font-size="12" font-weight="600" fill="#1E40AF">stg_tsma_mms</text>
  <text x="416" y="467" font-size="9" fill="#3B82F6" font-family="monospace">entity_name→entity_raw · total→billed_amt</text>

  <!-- stg_tsma_other_security -->
  <rect x="406" y="536" width="283" height="48" rx="4" fill="#EFF6FF" stroke="#BFDBFE"/>
  <text x="416" y="553" font-size="12" font-weight="600" fill="#1E40AF">stg_tsma_other_security</text>
  <text x="416" y="569" font-size="9" fill="#3B82F6" font-family="monospace">entity_raw · service_tower_raw · billed_amt</text>

  <!-- stg_tsma_other_router -->
  <rect x="406" y="590" width="283" height="48" rx="4" fill="#EFF6FF" stroke="#BFDBFE"/>
  <text x="416" y="607" font-size="12" font-weight="600" fill="#1E40AF">stg_tsma_other_router</text>
  <text x="416" y="623" font-size="9" fill="#3B82F6" font-family="monospace">entity_raw · service_tower_raw · billed_amt</text>

  <!-- stg_ngta_telus -->
  <rect x="406" y="688" width="283" height="48" rx="4" fill="#EFF6FF" stroke="#BFDBFE"/>
  <text x="416" y="705" font-size="12" font-weight="600" fill="#1E40AF">stg_ngta_telus</text>
  <text x="416" y="721" font-size="9" fill="#3B82F6" font-family="monospace">organization→entity_raw · amount→billed_amt</text>

  <!-- stg_ngta_rogers_cellular -->
  <rect x="406" y="742" width="283" height="48" rx="4" fill="#EFF6FF" stroke="#BFDBFE"/>
  <text x="416" y="759" font-size="12" font-weight="600" fill="#1E40AF">stg_ngta_rogers_cellular</text>
  <text x="416" y="775" font-size="9" fill="#3B82F6" font-family="monospace">bge→entity_raw · billed_amount_pre_tax→billed_amt</text>

  <!-- stg_ngta_rogers_data_voice -->
  <rect x="406" y="796" width="283" height="48" rx="4" fill="#EFF6FF" stroke="#BFDBFE"/>
  <text x="416" y="813" font-size="12" font-weight="600" fill="#1E40AF">stg_ngta_rogers_data_voice</text>
  <text x="416" y="829" font-size="9" fill="#3B82F6" font-family="monospace">bge→entity_raw · billed_amount_pre_tax→billed_amt</text>

  <!-- ═══════════════════════════════════════════════════ -->
  <!-- REFERENCE COLUMN -->
  <!-- ═══════════════════════════════════════════════════ -->
  <rect x="730" y="90" width="220" height="36" rx="6" fill="#DB2777"/>
  <text x="840" y="113" text-anchor="middle" font-size="13" font-weight="700" fill="white">reference_data</text>

  <!-- bge_aliases -->
  <rect x="736" y="370" width="208" height="90" rx="4" fill="#FDF2F8" stroke="#FBCFE8" stroke-width="1.5"/>
  <text x="746" y="389" font-size="12" font-weight="600" fill="#9D174D">bge_aliases</text>
  <text x="746" y="406" font-size="9" fill="#DB2777" font-family="monospace">alias_key (normalised)</text>
  <text x="746" y="420" font-size="9" fill="#DB2777" font-family="monospace">→ bge_id, canonical_name</text>
  <text x="746" y="450" font-size="8" fill="#EC4899">Seeded from ENTITY_ALIASES</text>

  <!-- service_categories -->
  <rect x="736" y="490" width="208" height="90" rx="4" fill="#FDF2F8" stroke="#FBCFE8" stroke-width="1.5"/>
  <text x="746" y="509" font-size="12" font-weight="600" fill="#9D174D">service_categories</text>
  <text x="746" y="526" font-size="9" fill="#DB2777" font-family="monospace">tower_raw</text>
  <text x="746" y="540" font-size="9" fill="#DB2777" font-family="monospace">→ canonical_tower, category</text>
  <text x="746" y="570" font-size="8" fill="#EC4899">Data / Voice / Out of Scope</text>

  <!-- ═══════════════════════════════════════════════════ -->
  <!-- INTERMEDIATE COLUMN -->
  <!-- ═══════════════════════════════════════════════════ -->
  <rect x="995" y="90" width="265" height="36" rx="6" fill="#7C3AED"/>
  <text x="1128" y="113" text-anchor="middle" font-size="13" font-weight="700" fill="white">intermediate  (views)</text>

  <!-- int_tsma_spend -->
  <rect x="1001" y="310" width="253" height="110" rx="4" fill="#F5F3FF" stroke="#DDD6FE" stroke-width="1.5"/>
  <text x="1011" y="329" font-size="12" font-weight="600" fill="#4C1D95">int_tsma_spend</text>
  <text x="1011" y="347" font-size="9" fill="#7C3AED" font-family="monospace">UNION wireless + wireline</text>
  <text x="1011" y="361" font-size="9" fill="#7C3AED" font-family="monospace">     + ivr + mms + other</text>
  <text x="1011" y="378" font-size="9" fill="#7C3AED" font-family="monospace">JOIN bge_aliases ON entity_raw</text>
  <text x="1011" y="395" font-size="9" fill="#7C3AED" font-family="monospace">JOIN service_categories ON tower</text>
  <text x="1011" y="412" font-size="8" fill="#A78BFA">→ bge_id · period · service_tower · billed_amt</text>

  <!-- int_ngta_spend -->
  <rect x="1001" y="510" width="253" height="110" rx="4" fill="#F5F3FF" stroke="#DDD6FE" stroke-width="1.5"/>
  <text x="1011" y="529" font-size="12" font-weight="600" fill="#4C1D95">int_ngta_spend</text>
  <text x="1011" y="547" font-size="9" fill="#7C3AED" font-family="monospace">UNION stg_ngta_telus</text>
  <text x="1011" y="561" font-size="9" fill="#7C3AED" font-family="monospace">     + rogers_cellular</text>
  <text x="1011" y="575" font-size="9" fill="#7C3AED" font-family="monospace">     + rogers_data_voice</text>
  <text x="1011" y="592" font-size="9" fill="#7C3AED" font-family="monospace">JOIN bge_aliases ON entity_raw</text>
  <text x="1011" y="609" font-size="8" fill="#A78BFA">→ bge_id · period · provider · billed_amt</text>

  <!-- ═══════════════════════════════════════════════════ -->
  <!-- MARTS COLUMN -->
  <!-- ═══════════════════════════════════════════════════ -->
  <rect x="1305" y="90" width="320" height="36" rx="6" fill="#059669"/>
  <text x="1465" y="113" text-anchor="middle" font-size="13" font-weight="700" fill="white">marts  (tables)</text>

  <!-- mart_monthly_spend_by_bge -->
  <rect x="1311" y="240" width="308" height="110" rx="4" fill="#ECFDF5" stroke="#A7F3D0" stroke-width="1.5"/>
  <text x="1321" y="259" font-size="12" font-weight="600" fill="#064E3B">mart_monthly_spend_by_bge</text>
  <text x="1321" y="277" font-size="9" fill="#059669" font-family="monospace">bge_id, canonical_name</text>
  <text x="1321" y="291" font-size="9" fill="#059669" font-family="monospace">period, provider, service_tower</text>
  <text x="1321" y="305" font-size="9" fill="#059669" font-family="monospace">SUM(billed_amt) AS total_billed</text>
  <text x="1321" y="340" font-size="8" fill="#34D399">Grain: bge × month × provider × tower</text>

  <!-- mart_tsma_monthly -->
  <rect x="1311" y="430" width="308" height="80" rx="4" fill="#ECFDF5" stroke="#A7F3D0" stroke-width="1.5"/>
  <text x="1321" y="449" font-size="12" font-weight="600" fill="#064E3B">mart_tsma_monthly</text>
  <text x="1321" y="467" font-size="9" fill="#059669" font-family="monospace">TSMA only · bge · period</text>
  <text x="1321" y="481" font-size="9" fill="#059669" font-family="monospace">service_tower · total_billed</text>
  <text x="1321" y="500" font-size="8" fill="#34D399">Source: int_tsma_spend</text>

  <!-- mart_ngta_monthly -->
  <rect x="1311" y="560" width="308" height="80" rx="4" fill="#ECFDF5" stroke="#A7F3D0" stroke-width="1.5"/>
  <text x="1321" y="579" font-size="12" font-weight="600" fill="#064E3B">mart_ngta_monthly</text>
  <text x="1321" y="597" font-size="9" fill="#059669" font-family="monospace">NGTA only · bge · period</text>
  <text x="1321" y="611" font-size="9" fill="#059669" font-family="monospace">provider · total_billed</text>
  <text x="1321" y="630" font-size="8" fill="#34D399">Source: int_ngta_spend</text>

  <!-- ═══════════════════════════════════════════════════ -->
  <!-- API COLUMN -->
  <!-- ═══════════════════════════════════════════════════ -->
  <rect x="1670" y="90" width="300" height="36" rx="6" fill="#4338CA"/>
  <text x="1820" y="113" text-anchor="middle" font-size="13" font-weight="700" fill="white">datasets/ plugins</text>

  <!-- datasets/tsma_spend -->
  <rect x="1676" y="410" width="288" height="80" rx="4" fill="#EEF2FF" stroke="#C7D2FE" stroke-width="1.5"/>
  <text x="1686" y="429" font-size="12" font-weight="600" fill="#1E1B4B">datasets/tsma_spend/</text>
  <text x="1686" y="447" font-size="9" fill="#4338CA" font-family="monospace">service.py + queries.sql</text>
  <text x="1686" y="461" font-size="9" fill="#4338CA" font-family="monospace">→ mart_tsma_monthly</text>
  <text x="1686" y="480" font-size="8" fill="#818CF8">FastAPI dataset plugin</text>

  <!-- datasets/ngta_spend -->
  <rect x="1676" y="540" width="288" height="80" rx="4" fill="#EEF2FF" stroke="#C7D2FE" stroke-width="1.5"/>
  <text x="1686" y="559" font-size="12" font-weight="600" fill="#1E1B4B">datasets/ngta_spend/</text>
  <text x="1686" y="577" font-size="9" fill="#4338CA" font-family="monospace">service.py + queries.sql</text>
  <text x="1686" y="591" font-size="9" fill="#4338CA" font-family="monospace">→ mart_ngta_monthly</text>
  <text x="1686" y="610" font-size="8" fill="#818CF8">FastAPI dataset plugin</text>

  <!-- ═══════════════════════════════════════════════════ -->
  <!-- FLOW ARROWS -->
  <!-- ═══════════════════════════════════════════════════ -->

  <!-- raw → staging (main horizontal) -->
  <line x1="372" y1="490" x2="400" y2="490" stroke="#94A3B8" stroke-width="2" marker-end="url(#arr)"/>

  <!-- staging → intermediate -->
  <line x1="691" y1="490" x2="993" y2="420" stroke="#94A3B8" stroke-width="2" marker-end="url(#arr)"/>
  <line x1="691" y1="490" x2="993" y2="560" stroke="#94A3B8" stroke-width="2" marker-end="url(#arr)"/>

  <!-- reference → int_tsma_spend (dashed pink) -->
  <line x1="944" y1="415" x2="999" y2="375" stroke="#DB2777" stroke-width="1.5" stroke-dasharray="5,3" marker-end="url(#arr-pink)"/>
  <!-- reference → int_ngta_spend (dashed pink) -->
  <line x1="944" y1="535" x2="999" y2="555" stroke="#DB2777" stroke-width="1.5" stroke-dasharray="5,3" marker-end="url(#arr-pink)"/>

  <!-- intermediate → marts -->
  <line x1="1256" y1="370" x2="1303" y2="320" stroke="#94A3B8" stroke-width="2" marker-end="url(#arr)"/>
  <line x1="1256" y1="565" x2="1303" y2="600" stroke="#94A3B8" stroke-width="2" marker-end="url(#arr)"/>
  <line x1="1256" y1="460" x2="1303" y2="480" stroke="#94A3B8" stroke-width="1.5" stroke-dasharray="4,3" marker-end="url(#arr)"/>

  <!-- marts → api -->
  <line x1="1621" y1="470" x2="1668" y2="455" stroke="#94A3B8" stroke-width="2" marker-end="url(#arr)"/>
  <line x1="1621" y1="600" x2="1668" y2="582" stroke="#94A3B8" stroke-width="2" marker-end="url(#arr)"/>

  <!-- Arrow labels -->
  <rect x="340" y="472" width="62" height="16" rx="3" fill="#F1F5F9"/>
  <text x="371" y="484" text-anchor="middle" font-size="8" fill="#64748B">normalise cols</text>

  <rect x="780" y="440" width="80" height="16" rx="3" fill="#F1F5F9"/>
  <text x="820" y="452" text-anchor="middle" font-size="8" fill="#64748B">status=finished</text>

  <rect x="886" y="396" width="62" height="16" rx="3" fill="#FDF2F8"/>
  <text x="917" y="408" text-anchor="middle" font-size="8" fill="#DB2777">alias JOIN</text>

  <!-- ═══════════════════════════════════════════════════ -->
  <!-- DIVIDER -->
  <!-- ═══════════════════════════════════════════════════ -->
  <line x1="20" y1="870" x2="1980" y2="870" stroke="#CBD5E1" stroke-width="1" stroke-dasharray="6,4"/>

  <!-- ═══════════════════════════════════════════════════ -->
  <!-- BGE ALIAS TABLE -->
  <!-- ═══════════════════════════════════════════════════ -->
  <rect x="20" y="884" width="1180" height="980" rx="8" fill="white" stroke="#E2E8F0" stroke-width="1.5"/>

  <text x="40" y="912" font-size="15" font-weight="700" fill="#0F172A">reference_data.bge_aliases</text>
  <text x="40" y="930" font-size="11" fill="#64748B">Seeded from ENTITY_ALIASES in scripts/tsma_v2.py · normalisation: strip non-alphanumeric, uppercase</text>

  <!-- Table header -->
  <rect x="30" y="942" width="1160" height="30" rx="4" fill="#F8FAFC"/>
  <text x="50"  y="962" font-size="10" font-weight="700" fill="#475569">bge_id</text>
  <text x="120" y="962" font-size="10" font-weight="700" fill="#475569">canonical_name</text>
  <text x="290" y="962" font-size="10" font-weight="700" fill="#475569">normalized_alias_keys  (strip non-alnum → uppercase)</text>
  <text x="900" y="962" font-size="10" font-weight="700" fill="#475569">notes</text>

  <!-- Row separator helper: alternating rows -->
  <!-- Row 1 -->
  <rect x="30" y="972" width="1160" height="32" rx="0" fill="#F8FAFC"/>
  <text x="50"  y="992" font-size="10" fill="#1E293B" font-weight="600">1</text>
  <text x="120" y="992" font-size="10" fill="#1E293B" font-weight="600">Gov BC</text>
  <text x="290" y="992" font-size="9"  fill="#334155" font-family="monospace">GOBC · GOVBC · GOVERNMENTOFBRITISHCOLUMBIA</text>
  <text x="900" y="992" font-size="9"  fill="#64748B">3 aliases</text>

  <!-- Row 2 -->
  <text x="50"  y="1024" font-size="10" fill="#1E293B" font-weight="600">2</text>
  <text x="120" y="1024" font-size="10" fill="#1E293B" font-weight="600">BCLC</text>
  <text x="290" y="1024" font-size="9"  fill="#334155" font-family="monospace">BCLC</text>
  <text x="900" y="1024" font-size="9"  fill="#64748B">maps to self</text>

  <!-- Row 3 -->
  <rect x="30" y="1036" width="1160" height="32" rx="0" fill="#F8FAFC"/>
  <text x="50"  y="1056" font-size="10" fill="#1E293B" font-weight="600">3</text>
  <text x="120" y="1056" font-size="10" fill="#1E293B" font-weight="600">BC Hydro</text>
  <text x="290" y="1056" font-size="9"  fill="#334155" font-family="monospace">BCHYDRO · BCHYDROPOWERAUTHORITY</text>
  <text x="900" y="1056" font-size="9"  fill="#64748B">2 aliases</text>

  <!-- Row 4 -->
  <text x="50"  y="1088" font-size="10" fill="#1E293B" font-weight="600">4</text>
  <text x="120" y="1088" font-size="10" fill="#1E293B" font-weight="600">WSBC</text>
  <text x="290" y="1088" font-size="9"  fill="#334155" font-family="monospace">WSBC · WORKSAFEBC · WORKSAFEBRITISHCOLUMBIA</text>
  <text x="900" y="1088" font-size="9"  fill="#64748B">3 aliases</text>

  <!-- Row 5 -->
  <rect x="30" y="1100" width="1160" height="32" rx="0" fill="#F8FAFC"/>
  <text x="50"  y="1120" font-size="10" fill="#1E293B" font-weight="600">5</text>
  <text x="120" y="1120" font-size="10" fill="#1E293B" font-weight="600">ECC</text>
  <text x="290" y="1120" font-size="9"  fill="#334155" font-family="monospace">ECC · TMOE</text>
  <text x="900" y="1120" font-size="9"  fill="#64748B">TMOE = former Ministry name</text>

  <!-- Row 6 -->
  <text x="50"  y="1152" font-size="10" fill="#1E293B" font-weight="600">6</text>
  <text x="120" y="1152" font-size="10" fill="#1E293B" font-weight="600">FHA</text>
  <text x="290" y="1152" font-size="9"  fill="#334155" font-family="monospace">FHA</text>
  <text x="900" y="1152" font-size="9"  fill="#64748B">Fraser Health Authority</text>

  <!-- Row 7 -->
  <rect x="30" y="1164" width="1160" height="32" rx="0" fill="#F8FAFC"/>
  <text x="50"  y="1184" font-size="10" fill="#1E293B" font-weight="600">7</text>
  <text x="120" y="1184" font-size="10" fill="#1E293B" font-weight="600">NHA</text>
  <text x="290" y="1184" font-size="9"  fill="#334155" font-family="monospace">NHA</text>
  <text x="900" y="1184" font-size="9"  fill="#64748B">Northern Health Authority</text>

  <!-- Row 8 -->
  <text x="50"  y="1216" font-size="10" fill="#1E293B" font-weight="600">8</text>
  <text x="120" y="1216" font-size="10" fill="#1E293B" font-weight="600">ICBC</text>
  <text x="290" y="1216" font-size="9"  fill="#334155" font-family="monospace">ICBC</text>

  <!-- Row 9 -->
  <rect x="30" y="1228" width="1160" height="32" rx="0" fill="#F8FAFC"/>
  <text x="50"  y="1248" font-size="10" fill="#1E293B" font-weight="600">9</text>
  <text x="120" y="1248" font-size="10" fill="#1E293B" font-weight="600">PHSA</text>
  <text x="290" y="1248" font-size="9"  fill="#334155" font-family="monospace">PHSA</text>
  <text x="900" y="1248" font-size="9"  fill="#64748B">Provincial Health Services Authority</text>

  <!-- Row 10 -->
  <text x="50"  y="1280" font-size="10" fill="#1E293B" font-weight="600">10</text>
  <text x="120" y="1280" font-size="10" fill="#1E293B" font-weight="600">IHA</text>
  <text x="290" y="1280" font-size="9"  fill="#334155" font-family="monospace">IHA</text>
  <text x="900" y="1280" font-size="9"  fill="#64748B">Interior Health Authority</text>

  <!-- Row 11 -->
  <rect x="30" y="1292" width="1160" height="32" rx="0" fill="#F8FAFC"/>
  <text x="50"  y="1312" font-size="10" fill="#1E293B" font-weight="600">11</text>
  <text x="120" y="1312" font-size="10" fill="#1E293B" font-weight="600">VIHA</text>
  <text x="290" y="1312" font-size="9"  fill="#334155" font-family="monospace">VIHA</text>
  <text x="900" y="1312" font-size="9"  fill="#64748B">Vancouver Island Health Authority</text>

  <!-- Row 12 -->
  <text x="50"  y="1344" font-size="10" fill="#1E293B" font-weight="600">12</text>
  <text x="120" y="1344" font-size="10" fill="#1E293B" font-weight="600">FNHA</text>
  <text x="290" y="1344" font-size="9"  fill="#334155" font-family="monospace">FNHA</text>
  <text x="900" y="1344" font-size="9"  fill="#64748B">First Nations Health Authority</text>

  <!-- Row 13 -->
  <rect x="30" y="1356" width="1160" height="44" rx="0" fill="#F8FAFC"/>
  <text x="50"  y="1374" font-size="10" fill="#1E293B" font-weight="600">13</text>
  <text x="120" y="1374" font-size="10" fill="#1E293B" font-weight="600">VCHA</text>
  <text x="290" y="1374" font-size="9"  fill="#334155" font-family="monospace">VCHA · PHC · VCHAPHC</text>
  <text x="290" y="1390" font-size="9"  fill="#334155" font-family="monospace">VANCOUVERCOASTALHEALTHAUTHORITYPROVIDENCEHEALTHCARE</text>
  <text x="900" y="1374" font-size="9"  fill="#64748B">4 aliases incl. full legal name</text>

  <!-- Row 14 -->
  <text x="50"  y="1424" font-size="10" fill="#1E293B" font-weight="600">14</text>
  <text x="120" y="1424" font-size="10" fill="#1E293B" font-weight="600">School Districts</text>
  <text x="290" y="1424" font-size="9"  fill="#334155" font-family="monospace">SCHOOLDISTRICTS</text>
  <text x="900" y="1424" font-size="9"  fill="#64748B">TSMA Lite rollup — no per-BGE breakdown</text>

  <!-- Table border lines -->
  <line x1="30" y1="972"  x2="1190" y2="972"  stroke="#E2E8F0" stroke-width="1"/>
  <line x1="30" y1="1004" x2="1190" y2="1004" stroke="#E2E8F0" stroke-width="1"/>
  <line x1="30" y1="1036" x2="1190" y2="1036" stroke="#E2E8F0" stroke-width="1"/>
  <line x1="30" y1="1068" x2="1190" y2="1068" stroke="#E2E8F0" stroke-width="1"/>
  <line x1="30" y1="1100" x2="1190" y2="1100" stroke="#E2E8F0" stroke-width="1"/>
  <line x1="30" y1="1132" x2="1190" y2="1132" stroke="#E2E8F0" stroke-width="1"/>
  <line x1="30" y1="1164" x2="1190" y2="1164" stroke="#E2E8F0" stroke-width="1"/>
  <line x1="30" y1="1196" x2="1190" y2="1196" stroke="#E2E8F0" stroke-width="1"/>
  <line x1="30" y1="1228" x2="1190" y2="1228" stroke="#E2E8F0" stroke-width="1"/>
  <line x1="30" y1="1260" x2="1190" y2="1260" stroke="#E2E8F0" stroke-width="1"/>
  <line x1="30" y1="1292" x2="1190" y2="1292" stroke="#E2E8F0" stroke-width="1"/>
  <line x1="30" y1="1324" x2="1190" y2="1324" stroke="#E2E8F0" stroke-width="1"/>
  <line x1="30" y1="1356" x2="1190" y2="1356" stroke="#E2E8F0" stroke-width="1"/>
  <line x1="30" y1="1400" x2="1190" y2="1400" stroke="#E2E8F0" stroke-width="1"/>
  <line x1="30" y1="1444" x2="1190" y2="1444" stroke="#E2E8F0" stroke-width="1"/>

  <!-- ═══════════════════════════════════════════════════ -->
  <!-- SERVICE TOWER TABLE -->
  <!-- ═══════════════════════════════════════════════════ -->
  <rect x="1220" y="884" width="760" height="500" rx="8" fill="white" stroke="#E2E8F0" stroke-width="1.5"/>

  <text x="1240" y="912" font-size="15" font-weight="700" fill="#0F172A">reference_data.service_categories</text>
  <text x="1240" y="930" font-size="11" fill="#64748B">Maps raw provider tower/category values to canonical service towers</text>

  <!-- Header -->
  <rect x="1230" y="942" width="740" height="30" rx="4" fill="#F8FAFC"/>
  <text x="1245" y="962" font-size="10" font-weight="700" fill="#475569">tower_raw</text>
  <text x="1450" y="962" font-size="10" font-weight="700" fill="#475569">canonical_tower</text>
  <text x="1650" y="962" font-size="10" font-weight="700" fill="#475569">category</text>
  <text x="1820" y="962" font-size="10" font-weight="700" fill="#475569">source</text>

  <!-- Rows -->
  <rect x="1230" y="972" width="740" height="28" fill="#F8FAFC"/>
  <text x="1245" y="990" font-size="9" fill="#334155" font-family="monospace">Business Internet</text>
  <text x="1450" y="990" font-size="9" fill="#334155" font-family="monospace">Business Internet</text>
  <text x="1650" y="990" font-size="9" fill="#0369A1" font-weight="600">Data</text>
  <text x="1820" y="990" font-size="9" fill="#64748B">tsma_wireline</text>

  <text x="1245" y="1022" font-size="9" fill="#334155" font-family="monospace">Data - WAN</text>
  <text x="1450" y="1022" font-size="9" fill="#334155" font-family="monospace">Data - WAN</text>
  <text x="1650" y="1022" font-size="9" fill="#0369A1" font-weight="600">Data</text>
  <text x="1820" y="1022" font-size="9" fill="#64748B">tsma_wireline</text>

  <rect x="1230" y="1036" width="740" height="28" fill="#F8FAFC"/>
  <text x="1245" y="1054" font-size="9" fill="#334155" font-family="monospace">Conferencing</text>
  <text x="1450" y="1054" font-size="9" fill="#334155" font-family="monospace">Conferencing</text>
  <text x="1650" y="1054" font-size="9" fill="#7C3AED" font-weight="600">Voice</text>
  <text x="1820" y="1054" font-size="9" fill="#64748B">tsma_wireline</text>

  <text x="1245" y="1086" font-size="9" fill="#334155" font-family="monospace">Long Distance</text>
  <text x="1450" y="1086" font-size="9" fill="#334155" font-family="monospace">Long Distance</text>
  <text x="1650" y="1086" font-size="9" fill="#7C3AED" font-weight="600">Voice</text>
  <text x="1820" y="1086" font-size="9" fill="#64748B">tsma_wireline</text>

  <rect x="1230" y="1100" width="740" height="28" fill="#F8FAFC"/>
  <text x="1245" y="1118" font-size="9" fill="#334155" font-family="monospace">Voice</text>
  <text x="1450" y="1118" font-size="9" fill="#334155" font-family="monospace">Voice</text>
  <text x="1650" y="1118" font-size="9" fill="#7C3AED" font-weight="600">Voice</text>
  <text x="1820" y="1118" font-size="9" fill="#64748B">tsma_wireline</text>

  <text x="1245" y="1150" font-size="9" fill="#334155" font-family="monospace">Managed WLAN</text>
  <text x="1450" y="1150" font-size="9" fill="#334155" font-family="monospace">Managed WLAN</text>
  <text x="1650" y="1150" font-size="9" fill="#DC2626" font-weight="600">Out of Scope</text>
  <text x="1820" y="1150" font-size="9" fill="#64748B">tsma_wireline</text>

  <rect x="1230" y="1164" width="740" height="28" fill="#F8FAFC"/>
  <text x="1245" y="1182" font-size="9" fill="#334155" font-family="monospace">Managed Security</text>
  <text x="1450" y="1182" font-size="9" fill="#334155" font-family="monospace">Managed Security</text>
  <text x="1650" y="1182" font-size="9" fill="#DC2626" font-weight="600">Out of Scope</text>
  <text x="1820" y="1182" font-size="9" fill="#64748B">tsma_other_managed_security</text>

  <text x="1245" y="1214" font-size="9" fill="#334155" font-family="monospace">Managed Router</text>
  <text x="1450" y="1214" font-size="9" fill="#334155" font-family="monospace">Managed Router</text>
  <text x="1650" y="1214" font-size="9" fill="#DC2626" font-weight="600">Out of Scope</text>
  <text x="1820" y="1214" font-size="9" fill="#64748B">tsma_other_managed_router</text>

  <rect x="1230" y="1228" width="740" height="28" fill="#F8FAFC"/>
  <text x="1245" y="1246" font-size="9" fill="#334155" font-family="monospace">IVR</text>
  <text x="1450" y="1246" font-size="9" fill="#334155" font-family="monospace">IVR</text>
  <text x="1650" y="1246" font-size="9" fill="#B45309" font-weight="600">TSMA Special</text>
  <text x="1820" y="1246" font-size="9" fill="#64748B">tsma_ivr (no tower col)</text>

  <text x="1245" y="1278" font-size="9" fill="#334155" font-family="monospace">MMS</text>
  <text x="1450" y="1278" font-size="9" fill="#334155" font-family="monospace">MMS</text>
  <text x="1650" y="1278" font-size="9" fill="#B45309" font-weight="600">TSMA Special</text>
  <text x="1820" y="1278" font-size="9" fill="#64748B">tsma_mms (no tower col)</text>

  <!-- Table lines -->
  <line x1="1230" y1="972"  x2="1970" y2="972"  stroke="#E2E8F0" stroke-width="1"/>
  <line x1="1230" y1="1000" x2="1970" y2="1000" stroke="#E2E8F0" stroke-width="1"/>
  <line x1="1230" y1="1036" x2="1970" y2="1036" stroke="#E2E8F0" stroke-width="1"/>
  <line x1="1230" y1="1064" x2="1970" y2="1064" stroke="#E2E8F0" stroke-width="1"/>
  <line x1="1230" y1="1100" x2="1970" y2="1100" stroke="#E2E8F0" stroke-width="1"/>
  <line x1="1230" y1="1128" x2="1970" y2="1128" stroke="#E2E8F0" stroke-width="1"/>
  <line x1="1230" y1="1164" x2="1970" y2="1164" stroke="#E2E8F0" stroke-width="1"/>
  <line x1="1230" y1="1192" x2="1970" y2="1192" stroke="#E2E8F0" stroke-width="1"/>
  <line x1="1230" y1="1228" x2="1970" y2="1228" stroke="#E2E8F0" stroke-width="1"/>
  <line x1="1230" y1="1256" x2="1970" y2="1256" stroke="#E2E8F0" stroke-width="1"/>
  <line x1="1230" y1="1292" x2="1970" y2="1292" stroke="#E2E8F0" stroke-width="1"/>

  <!-- ═══════════════════════════════════════════════════ -->
  <!-- NORMALISATION NOTE -->
  <!-- ═══════════════════════════════════════════════════ -->
  <rect x="20" y="1480" width="1960" height="90" rx="8" fill="#FFF7ED" stroke="#FED7AA" stroke-width="1.5"/>
  <text x="40" y="1502" font-size="13" font-weight="700" fill="#92400E">Alias Normalisation Function</text>
  <text x="40" y="1522" font-size="11" fill="#78716C">Before matching against bge_aliases, raw entity strings are normalised with: strip all non-alphanumeric characters → uppercase</text>
  <text x="40" y="1540" font-size="10" fill="#B45309" font-family="monospace">SQL equivalent:  UPPER(REGEXP_REPLACE(TRIM(entity_raw), '[^A-Z0-9]', '', 'gi'))  =  alias_key</text>
  <text x="40" y="1558" font-size="11" fill="#78716C">This means "Vancouver Coastal Health Authority / Providence Healthcare" and "VCHA" both resolve to bge_id=13 (VCHA).</text>

  <!-- Footer -->
  <text x="1000" y="1590" text-anchor="middle" font-size="10" fill="#94A3B8">Generated from raw schema analysis · scripts/tsma_v2.py ENTITY_ALIASES · local_dev/raw_ingestion/*/schema.sql</text>

</svg>
